<?xml version="1.0" encoding="UTF-8"?>
<svg width="74px" height="46px" viewBox="0 0 74 46" version="1.1" xmlns="http://www.w3.org/2000/svg" xmlns:xlink="http://www.w3.org/1999/xlink">
    <title>编组</title>
    <defs>
        <filter id="filter-1">
            <feColorMatrix in="SourceGraphic" type="matrix" values="0 0 0 0 0.776471 0 0 0 0 0.776471 0 0 0 0 0.776471 0 0 0 1.000000 0"></feColorMatrix>
        </filter>
    </defs>
    <g id="Page-1" stroke="none" stroke-width="1" fill="none" fill-rule="evenodd">
        <g id="编组" transform="translate(-303.000000, -652.000000)" filter="url(#filter-1)">
            <g transform="translate(303.000000, 652.000000)">
                <path d="M69.56,46 L4.40427587,46 C1.95972414,46 0,44.0961111 0,41.7245555 L0,4.27544445 C0,1.90388889 1.95972414,0 4.40172414,0 L69.5982759,0 C72.002,0 74,1.90388889 74,4.27544445 L74,41.7603333 C73.9642759,44.0961111 72.002,46 69.56,46 L69.56,46 Z M4.40427587,2.15688889 C3.18200001,2.15688889 2.22255173,3.08966667 2.22255173,4.27800002 L2.22255173,41.7577777 C2.22255173,42.9077778 3.18200001,43.8788889 4.40427587,43.8788889 L69.6008276,43.8788889 C70.7848276,43.8788889 71.7825517,42.9435555 71.7825517,41.7577777 L71.7825517,4.27544445 C71.7825517,3.12544443 70.8231035,2.15433337 69.6008276,2.15433337 L4.40172414,2.15433337 L4.40427587,2.15688889 Z M19.342069,15.6323334 C18.750069,16.3862222 17.640069,16.9995556 16.7137931,16.8538889 C16.5683448,15.8137778 17.0123448,14.7327778 17.6043448,14.1245556 C18.2320689,13.3681111 19.3395172,12.7573334 20.2657931,12.7573334 C20.4137931,13.8 19.9697931,14.8784445 19.342069,15.6323334 L19.342069,15.6323334 Z M20.304069,17.1401111 C20.9317931,17.1401111 22.6337931,17.3215555 23.5957931,18.7603334 C23.4452414,18.7603334 21.5595173,19.8362222 21.5595173,22.1004445 C21.5595173,24.8348889 24.0372414,25.7293333 24.0372414,25.7293333 C24.0372414,25.9107778 23.7055172,27.0965555 22.7817931,28.3181111 C22.0035173,29.5396666 21.2252414,30.5823333 19.9697931,30.5823333 C18.898069,30.5823333 18.4157931,29.8284444 17.0097931,29.8284444 C15.6063449,29.8284444 15.1266207,30.5823333 14.0523448,30.5823333 C12.7943449,30.5823333 11.8706207,29.3607778 11.0923448,28.3181111 C9.54089655,26.197 8.46917244,22.1387777 10.0206207,19.4068889 C10.7988966,18.0396667 12.2048966,17.1426667 13.7563448,17.1426667 C15.0143448,17.1426667 16.086069,17.8965555 16.7163448,18.0396667 C17.492069,18.0396667 18.750069,16.9995556 20.304069,17.1426667 L20.304069,17.1401111 Z M35.3924138,13.9788889 C38.6458621,13.9788889 41.0113104,16.2431111 41.0113104,19.4426667 C41.0113104,22.6396667 38.6815862,24.9038889 35.3924138,24.9038889 L31.8046897,24.9038889 L31.8046897,30.5107778 L29.1406897,30.5107778 L29.1406897,13.9788889 L35.3924138,13.9788889 L35.3924138,13.9788889 Z M31.6566897,22.7495556 L34.6166897,22.7495556 C36.9438621,22.7495556 38.2018621,21.5254445 38.2018621,19.4068889 C38.2018621,17.2857778 36.9438621,16.0642222 34.6141379,16.0642222 L31.654138,16.0642222 L31.654138,22.7495556 L31.6566897,22.7495556 Z M41.6033103,27.1323333 C41.6033103,25.0112222 43.3053103,23.7896666 46.2627586,23.6465555 L49.5187586,23.5034444 L49.5187586,22.6038889 C49.5187586,21.2392223 48.5924828,20.4827778 47.0410345,20.4827778 C45.6375862,20.4827778 44.7113104,21.0961111 44.5633103,22.1362222 L42.2335862,22.1362222 C42.2335862,20.0151111 44.4153103,18.5073334 47.2247586,18.5073334 C50.1847587,18.5073334 52.2184828,20.0151111 52.2184828,22.425 L52.2184828,30.5823333 L49.7407586,30.5823333 L49.7407586,28.6068889 C49.1104828,29.9715555 47.5590345,30.728 45.8570345,30.728 C43.3435862,30.6181111 41.6033103,29.2534444 41.6033103,27.1323333 L41.6033103,27.1323333 Z M49.5544827,26.0896667 L49.5544827,25.1568889 L46.5944828,25.3 C44.8950345,25.4431111 44.1193104,26.0538889 44.1193104,26.9534444 C44.1193104,27.9961111 45.0430345,28.6068889 46.4490345,28.6068889 C48.2990345,28.6426667 49.5544827,27.6 49.5544827,26.0896667 L49.5544827,26.0896667 Z M54.3619311,34.8603333 L54.3619311,32.8823333 L55.1402069,32.8823333 C56.211931,32.8823333 57.0259311,32.4146666 57.321931,31.2288889 L57.6179311,30.475 L53.1064828,18.5073334 L55.915931,18.5073334 L59.0213793,28.175 L62.1293793,18.5073334 L64.7908276,18.5073334 L60.1313793,31.05 C59.0596552,33.925 57.8016552,34.8245555 55.323931,34.8245555 C55.175931,35.0034444 54.5482069,35.0034444 54.3619311,34.8603333 Z" id="形状" fill="#000000" fill-rule="nonzero"></path>
            </g>
        </g>
    </g>
</svg>